<?xml version="1.0" encoding="UTF-8" standalone="no"?>
<!-- Created with Inkscape (http://www.inkscape.org/) -->

<svg
   xmlns:dc="http://purl.org/dc/elements/1.1/"
   xmlns:cc="http://creativecommons.org/ns#"
   xmlns:rdf="http://www.w3.org/1999/02/22-rdf-syntax-ns#"
   xmlns:svg="http://www.w3.org/2000/svg"
   xmlns="http://www.w3.org/2000/svg"
   xmlns:sodipodi="http://sodipodi.sourceforge.net/DTD/sodipodi-0.dtd"
   xmlns:inkscape="http://www.inkscape.org/namespaces/inkscape"
   width="81.375"
   height="52.75"
   id="svg4614"
   version="1.1"
   inkscape:version="0.47 r22583"
   sodipodi:docname="Nouveau document 16">
  <defs
     id="defs4616" />
  <sodipodi:namedview
     id="base"
     pagecolor="#ffffff"
     bordercolor="#666666"
     borderopacity="1.0"
     inkscape:pageopacity="0.0"
     inkscape:pageshadow="2"
     inkscape:zoom="2.8"
     inkscape:cx="50.0282"
     inkscape:cy="25.662425"
     inkscape:document-units="px"
     inkscape:current-layer="svg4614"
     showgrid="false"
     inkscape:window-width="550"
     inkscape:window-height="483"
     inkscape:window-x="25"
     inkscape:window-y="25"
     inkscape:window-maximized="0" />
  <metadata
     id="metadata4619">
    <rdf:RDF>
      <cc:Work
         rdf:about="">
        <dc:format>image/svg+xml</dc:format>
        <dc:type
           rdf:resource="http://purl.org/dc/dcmitype/StillImage" />
        <dc:title></dc:title>
      </cc:Work>
    </rdf:RDF>
  </metadata>
  <path
     style="fill:#ffffff;fill-opacity:1;stroke:none"
     d="M 39.59375,0.6875 C 26.3966,9.25118 13.19329,17.80537 0,26.375 13.56128,35.16846 27.10575,43.9885 40.6875,52.75 54.26912,43.9883 67.81382,35.16861 81.375,26.375 67.81372,17.58154 54.26925,8.7615 40.6875,0 L 39.84086,0.53217 39.59375,0.6875 z"
     id="path4578" />
  <path
     style="fill:#000000;fill-opacity:1;stroke:none"
     d="m 40.6875,2.375 -37,24 37,24 37,-24 -37,-24 z m -3,3.1875 3,2 3,-2 -2,3 2,3 -3,-2 -3,2 2,-3 -2,-3 z m -8.65625,5.59375 3,2 3,-2 -2,3 2,3 -3,-2 -3,2 2,-3 -2,-3 z m 17.3125,0 3,2 3,-2 -2,3 2,3 -3,-2 -3,2 2,-3 -2,-3 z m -25.9375,5.625 3,2 3,-2 -2,3 2,3 -3,-2 -3,2 2,-3 -2,-3 z m 34.5625,0 3,2 3,-2 -2,3 2,3 -3,-2 -3,2 2.03125,-3 -2.03125,-3 z M 11.75,22.375 l 3,2 3,-2 -2,3 2,3 -3,-2 -3,2 2,-3 -2,-3 z m 51.875,0 3,2 3,-2 -2,3 2,3 -3,-2 -3,2 2,-3 -2,-3 z"
     id="rect4520" />
</svg>
