<?xml version="1.0" encoding="UTF-8" standalone="no"?>
<!-- Created with Inkscape (http://www.inkscape.org/) -->

<svg
   xmlns:dc="http://purl.org/dc/elements/1.1/"
   xmlns:cc="http://creativecommons.org/ns#"
   xmlns:rdf="http://www.w3.org/1999/02/22-rdf-syntax-ns#"
   xmlns:svg="http://www.w3.org/2000/svg"
   xmlns="http://www.w3.org/2000/svg"
   xmlns:sodipodi="http://sodipodi.sourceforge.net/DTD/sodipodi-0.dtd"
   xmlns:inkscape="http://www.inkscape.org/namespaces/inkscape"
   width="81.972626"
   height="52.418961"
   id="svg3630"
   version="1.1"
   inkscape:version="0.47 r22583"
   sodipodi:docname="Nouveau document 3">
  <defs
     id="defs3632" />
  <sodipodi:namedview
     id="base"
     pagecolor="#ffffff"
     bordercolor="#666666"
     borderopacity="1.0"
     inkscape:pageopacity="0.0"
     inkscape:pageshadow="2"
     inkscape:zoom="1.979899"
     inkscape:cx="49.555419"
     inkscape:cy="52.586792"
     inkscape:document-units="px"
     inkscape:current-layer="svg3630"
     showgrid="false"
     inkscape:window-width="550"
     inkscape:window-height="483"
     inkscape:window-x="25"
     inkscape:window-y="25"
     inkscape:window-maximized="0" />
  <metadata
     id="metadata3635">
    <rdf:RDF>
      <cc:Work
         rdf:about="">
        <dc:format>image/svg+xml</dc:format>
        <dc:type
           rdf:resource="http://purl.org/dc/dcmitype/StillImage" />
        <dc:title></dc:title>
      </cc:Work>
    </rdf:RDF>
  </metadata>
  <g
     id="g3655">
    <path
       id="path3607"
       d="m 31.577625,3.667885 c -1.214127,-6.948818 -13.428115,1.412041 -17.84375,7.53125 l 1.21875,-4.96875 c -25.692741,16.22432 -14.692144,46.9721 6.09375,45 9.1875,-3.5625 13.976952,4.33337 11,-6.53125 2.875605,4.67578 5.051894,7.78623 9.09375,7.71875 4.041856,-0.0675 6.470256,-2.51009 8.96875,-8.09375 -0.580724,11.67534 2.09375,3.34375 10.78125,7.0625 21.593093,2.31445 31.69678,-34.1754 5.221628,-45.318878 l 2.528372,5.225128 c -5.475363,-5.538143 -17.289836,-15.061538 -17.53125,-7.4375 -1.945085,-1.795673 -4.708107,-4.289538 -7.25,-3.65625 -2.415252,0.601737 -3.79218,0.628199 -5.9375,-0.09375 -1.90076,-0.639649 -5.169162,1.768187 -6.34375,3.5625 z"
       style="fill:#ffffff;fill-opacity:1;stroke:none" />
    <path
       id="path2813"
       d="m 38.233875,1.980385 c -1.019801,-0.179819 -2.174174,1.620462 -2.59375,4 -0.419577,2.379536 0.07395,4.445184 1.09375,4.625 1.019801,0.179819 2.174174,-1.620463 2.59375,-4 0.419577,-2.379537 -0.07395,-4.445184 -1.09375,-4.625 z m 5.96875,0 c -1.0198,0.179816 -1.513327,2.245463 -1.09375,4.625 0.419576,2.379537 1.573949,4.179819 2.59375,4 1.0198,-0.179816 1.513327,-2.245464 1.09375,-4.625 -0.419576,-2.379538 -1.573949,-4.179819 -2.59375,-4 z m -15.53125,1.03125 c -0.673956,0.02812 -1.844956,1.159539 -2.78125,2.78125 -1.070052,1.853384 -1.441615,3.623569 -0.84375,3.96875 0.597866,0.345178 1.9612,-0.865367 3.03125,-2.71875 1.070053,-1.853385 1.441615,-3.623569 0.84375,-3.96875 -0.07473,-0.04315 -0.153721,-0.06652 -0.25,-0.0625 z m 25.09375,0 c -0.09628,-0.004 -0.17527,0.01935 -0.25,0.0625 -0.597865,0.345181 -0.226303,2.115365 0.84375,3.96875 1.07005,1.853383 2.433384,3.063928 3.03125,2.71875 0.597865,-0.345181 0.226302,-2.115366 -0.84375,-3.96875 -0.936294,-1.621711 -2.107294,-2.75313 -2.78125,-2.78125 z m -22.28125,3.78125 c -7.961954,10.88659 -4.39337,31.3707 0.5,34 -2.603128,-9.37809 -1.636601,-25.429518 -0.5,-34 z m 19.46875,0 c 1.136601,8.570482 2.103128,24.62191 -0.5,34 4.89337,-2.6293 8.461954,-23.11341 0.5,-34 z m -30.71875,1.5 c -12.480686,8.96083 -7.738565,26.5426 -1.375,33.875 -1.976015,-8.97882 -4.019065,-17.31231 1.375,-33.875 z m 41.96875,0 c 5.394065,16.56269 3.351015,24.89618 1.375,33.875 6.363565,-7.3324 11.105686,-24.91417 -1.375,-33.875 z m -20.59375,2.75 c -3.753951,10.23152 -3.385564,20.57226 -0.375,31.375 3.158547,-10.91565 3.69406,-21.11772 0.375,-31.375 z m -30.125,0.875 c -18.3731153,14.18452 -3.327343,41.45363 10.125,36.625 -10.587572,-8.1658 -16.590288,-18.84429 -10.125,-36.625 z m 59.46875,0 c 6.465288,17.78071 0.462572,28.4592 -10.125,36.625 13.452343,4.82863 28.49812,-22.44048 10.125,-36.625 z m -34.84375,1.625 c -7.687168,14.79792 -2.014608,26.53121 2.5,34.125 -2.603915,-8.89407 -2.860032,-20.85356 -2.5,-34.125 z m 10.21875,0 c 0.360032,13.27144 0.103915,25.23093 -2.5,34.125 4.514608,-7.59379 10.187168,-19.32708 2.5,-34.125 z m -21.84375,0.25 c -11.199304,15.02065 -2.118341,29.2696 5.75,33.875 -4.566733,-8.12482 -8.044224,-15.61947 -5.75,-33.875 z m 33.46875,0 c 2.294224,18.25553 -1.183267,25.75018 -5.75,33.875 7.868341,-4.6054 16.949304,-18.85435 5.75,-33.875 z"
       style="fill:#000000;fill-opacity:1;stroke:none" />
  </g>
</svg>
