<?xml version="1.0" encoding="UTF-8" standalone="no"?>
<!-- Created with Inkscape (http://www.inkscape.org/) -->

<svg
   xmlns:dc="http://purl.org/dc/elements/1.1/"
   xmlns:cc="http://creativecommons.org/ns#"
   xmlns:rdf="http://www.w3.org/1999/02/22-rdf-syntax-ns#"
   xmlns:svg="http://www.w3.org/2000/svg"
   xmlns="http://www.w3.org/2000/svg"
   xmlns:sodipodi="http://sodipodi.sourceforge.net/DTD/sodipodi-0.dtd"
   xmlns:inkscape="http://www.inkscape.org/namespaces/inkscape"
   width="70.381348"
   height="67.130608"
   id="svg3623"
   version="1.1"
   inkscape:version="0.47 r22583"
   sodipodi:docname="2.svg">
  <defs
     id="defs3625" />
  <sodipodi:namedview
     id="base"
     pagecolor="#ffffff"
     bordercolor="#666666"
     borderopacity="1.0"
     inkscape:pageopacity="0.0"
     inkscape:pageshadow="2"
     inkscape:zoom="2.8"
     inkscape:cx="26.89002"
     inkscape:cy="44.774628"
     inkscape:document-units="px"
     inkscape:current-layer="svg3623"
     showgrid="false"
     inkscape:window-width="550"
     inkscape:window-height="483"
     inkscape:window-x="22"
     inkscape:window-y="127"
     inkscape:window-maximized="0" />
  <metadata
     id="metadata3628">
    <rdf:RDF>
      <cc:Work
         rdf:about="">
        <dc:format>image/svg+xml</dc:format>
        <dc:type
           rdf:resource="http://purl.org/dc/dcmitype/StillImage" />
        <dc:title />
      </cc:Work>
    </rdf:RDF>
  </metadata>
  <path
     style="fill:#ffffff;fill-opacity:1;stroke:none"
     d="m 50.941467,0.0056107 c -5.80566,0.0152 -10.22228,4.56479 -14.53125,7.375 -10.17383,-3.11134 -19.5878,6.4298803 -21.1875,15.8437503 -0.56971,4.44291 -1.38425,9.94014 -6.8749996,10.375 -2.15988,1.57767 -10.854,-0.1676 -7.64445996,2.69075 3.84061996,3.82553 8.42272996,8.86992 14.48820956,7.30925 0.29652,5.62114 -0.85456,14.01219 6.01238,7.27302 2.69305,-2.98564 3.98208,-1.32711 5.48762,1.22698 2.52151,2.87925 6.59044,4.25843 9.9375,6.125 -0.87533,-6.77449 -2.91817,-15.90109 4.15788,-20.12834 6.69647,-4.62302 10.87348,-13.30439 7.65462,-21.27791 -0.56571,-2.72056 -4.9904,-5.51765 -0.65625,-6.78125 6.28439,-4.3416703 17.03546,1.96851 14,9.75 -1.68043,8.53401 -10.09784,13.47551 -14.28125,20.75 -5.53973,7.67275 -7.72474,17.22687 -6.40625,26.59375 3.18489,-0.76005 10.19396,1.73945 8.0625,-3.46875 -0.95463,-13.66609 10.5921,-23.00964 17.34375,-33.40625 4.79596,-7.54261 6.01172,-18.6422 -1.40625,-25.0312503 -3.7873,-3.36995 -9.07364,-5.34385 -14.15625,-5.21875 z"
     id="path3672" />
  <path
     style="fill:#000000;fill-opacity:1;stroke:none"
     d="m 3.8187974,36.493161 c 0,0 7.6512696,-0.56701 10.7279496,-3.97073 3.07668,-3.40372 1.00367,-13.67326 8.91673,-19.85367 5.23898,-4.2234403 6.12038,-4.4438303 14.07173,-3.0651303 0,0 5.07765,-4.7653 7.80215,-5.99093 2.7245,-1.22564 4.71114,-1.89567 7.94147,-1.53257 3.23033,0.36311 7.78499,2.04639 10.4493,4.5977 2.66431,2.5513 4.36359,5.7270203 4.73701,9.6133503 0.37342,3.88633 -1.3306,8.09555 -3.34377,12.26051 -2.01317,4.16496 -6.14746,7.88992 -8.91674,12.12119 -2.76928,4.23127 -5.54836,6.07885 -7.66282,13.23578 -2.11446,7.15693 -1.25391,11.0066 -1.25391,11.0066 l -4.31905,0.13932 c 0,0 -0.42969,-6.39479 0.27865,-9.892 0.70834,-3.49721 2.17733,-7.10043 4.17972,-10.72795 2.00239,-3.62752 5.54057,-7.62239 7.94147,-10.72795 2.4009,-3.10556 4.92039,-4.93926 6.4089,-7.94147 1.48851,-3.00221 2.59972,-6.93341 2.36851,-9.61335 -0.23121,-2.67994 -1.14196,-4.1553 -2.50783,-5.71229 -1.36587,-1.5569803 -3.21074,-2.6000203 -5.29432,-3.2044503 -2.08358,-0.60443 -4.40455,-0.82135 -6.82687,-0.13932 -2.42232,0.68202 -4.96227,2.47368 -6.9662,4.4583703 4.95925,4.6834 6.21094,11.34639 3.62242,17.55482 -2.88639,5.22091 -9.26808,8.95283 -10.93693,11.9122 -1.66885,2.95937 -1.97605,7.00941 -1.04493,13.72342 0,0 -3.91238,-1.86786 -5.43364,-3.34378 -1.52126,-1.47592 -3.4831,-5.29431 -3.4831,-5.29431 l -7.66282,4.59769 -0.5573,-9.47403 c 0,0 -4.31294,1.02884 -6.68755,0.27865 -2.3746096,-0.75019 -6.5482296,-5.01567 -6.5482296,-5.01567 z"
     id="path2818" />
</svg>
