<?xml version="1.0" encoding="UTF-8" standalone="no"?>
<!-- Created with Inkscape (http://www.inkscape.org/) -->

<svg
   xmlns:dc="http://purl.org/dc/elements/1.1/"
   xmlns:cc="http://creativecommons.org/ns#"
   xmlns:rdf="http://www.w3.org/1999/02/22-rdf-syntax-ns#"
   xmlns:svg="http://www.w3.org/2000/svg"
   xmlns="http://www.w3.org/2000/svg"
   xmlns:sodipodi="http://sodipodi.sourceforge.net/DTD/sodipodi-0.dtd"
   xmlns:inkscape="http://www.inkscape.org/namespaces/inkscape"
   width="66.535355"
   height="66.353546"
   id="svg3623"
   version="1.1"
   inkscape:version="0.47 r22583"
   sodipodi:docname="3.svg">
  <defs
     id="defs3625" />
  <sodipodi:namedview
     id="base"
     pagecolor="#ffffff"
     bordercolor="#666666"
     borderopacity="1.0"
     inkscape:pageopacity="0.0"
     inkscape:pageshadow="2"
     inkscape:zoom="0.7"
     inkscape:cx="-3.5595403"
     inkscape:cy="85.757659"
     inkscape:document-units="px"
     inkscape:current-layer="svg3623"
     showgrid="false"
     inkscape:window-width="550"
     inkscape:window-height="483"
     inkscape:window-x="112"
     inkscape:window-y="136"
     inkscape:window-maximized="0" />
  <metadata
     id="metadata3628">
    <rdf:RDF>
      <cc:Work
         rdf:about="">
        <dc:format>image/svg+xml</dc:format>
        <dc:type
           rdf:resource="http://purl.org/dc/dcmitype/StillImage" />
        <dc:title />
      </cc:Work>
    </rdf:RDF>
  </metadata>
  <path
     style="fill:#ffffff;fill-opacity:1;stroke:none"
     d="m 23.453413,3 c -0.74441,7.89734 -4.2311,10.69846 -11.45562,6.55321 -6.7421604,-3.14964 -0.0566,7.95076 -0.45063,11.57179 -3.5267504,1.91844 -16.3540604,1.05554 -9.1617804,6.20013 6.70861,4.35881 5.54363,8.48395 -0.77572,12.45612 -6.63385,4.79037 9.3687504,3.2757 9.5649404,7.1166 -0.74282,4.64736 -6.5927504,14.05926 2.04054,9.8106 7.58736,-4.34455 8.77222,1.68018 9.69524,8.13776 1.61302,6.30397 7.99687,-9.49097 11.39109,-4.99168 3.91115,4.18589 8.43887,11.10884 9.10364,1.46778 -0.11539,-9.02399 7.03391,-4.58262 12.5602,-3.09975 4.18183,-0.50209 -5.78691,-12.92994 1.37147,-12.87069 6.85305,-0.91473 11.75385,-2.45177 4.20127,-7.68366 -7.69293,-4.38631 1.82438,-8.26904 4.9973,-12.32748 -2.3137,-2.92966 -15.00791,-1.19046 -10.9042,-7.93211 3.51702,-7.27259 1.80326,-9.49584 -5.8008,-6.25788 C 42.749583,14.93935 44.653233,4.18118 42.484663,0 38.148783,2.54731 33.615353,12.86786 29.598883,5.16056 27.149703,3.83612 24.025273,-4.01568 23.453413,3 z m 11.28125,12.96875 c -4.11488,5.16394 -4.12948,-5.10469 0,0 z m -9,1.46875 c -1.0246,6.67057 -6.2561,-2.41404 0,0 z m 17.625,1.78125 c -6.2419,2.48232 -1.12491,-6.61193 0,0 z m -24.1875,6.375 c -6.30805,3.05626 -0.54351,-6.78126 0,0 z m 30.53125,-1.625 c -0.64656,6.94896 -6.12377,-3.03796 0,0 z m -32.71875,9.625 c -3.875,5.72384 -3.741,-5.63679 0,0 z m 35.25,0 c -3.86491,5.6295 -3.76235,-5.54881 0,0 z m -33.0625,7.96875 c -0.59408,6.96913 -6.14809,-2.97845 0,0 z m 30.53125,1.65625 c -6.30805,3.05626 -0.54351,-6.78126 0,0 z M 25.734663,49.75 c -6.2419,2.48232 -1.12491,-6.61193 0,0 z m 17.625,-1.78125 c -1.11015,6.67572 -6.22708,-2.45241 0,0 z m -8.59375,3.25 c -4.18445,5.141 -4.20338,-5.08179 0,0 z"
     id="path3680" />
  <path
     style="fill:#000000;fill-opacity:1;stroke:none"
     d="m 25.359663,3.59375 -3.375,10.9375 6.28125,1.4375 4.71875,-4.375 -7.625,-8 z m 7.625,8 4.71875,4.375 6.28125,-1.4375 -2.625,-10.75 -8.375,7.8125 z m 11,2.9375 1.90625,6.15625 6.15625,1.90625 3.09375,-10.625 -11.15625,2.5625 z m 8.0625,8.0625 -1.4375,6.28125 4.375,4.71875 8,-7.625 -10.9375,-3.375 z m 2.9375,11 -4.375,4.71875 1.4375,6.28125 10.75,-2.625 -7.8125,-8.375 z m -2.9375,11 -6.15625,1.90625 -1.90625,6.15625 10.625,3.09375 -2.5625,-11.15625 z m -8.0625,8.0625 -6.28125,-1.4375 -4.71875,4.375 7.625,8 3.375,-10.9375 z m -11,2.9375 -4.71875,-4.375 -6.28125,1.4375 2.625,10.75 8.375,-7.8125 z m -11,-2.9375 -1.90625,-6.15625 -6.15625,-1.90625 -3.09375,10.625 11.15625,-2.5625 z m -8.0625,-8.0625 1.4375,-6.28125 -4.375,-4.71875 -8.0000004,7.625 10.9375004,3.375 z m -2.9375,-11 4.375,-4.71875 -1.4375,-6.28125 -10.7500004,2.625 7.8125004,8.375 z m 2.9375,-11 6.15625,-1.90625 1.90625,-6.15625 -10.625,-3.09375 2.5625,11.15625 z m 6.15625,-1.90625 1.4375,6.28125 8.46875,3.625 -3.59375,-8.5 -0.0312,0.0312 -6.28125,-1.4375 z m 6.3125,1.40625 5.5,7.40625 1.09375,-9.125 1.09375,9.125 5.53125,-7.375 -1.90625,-6.15625 -4.71875,4.375 -4.71875,-4.375 -1.875,6.125 z m 13.21875,0.0312 -3.625,8.46875 8.5,-3.59375 -0.0312,-0.0312 1.4375,-6.28125 -6.28125,1.4375 z m 4.875,4.875 -7.40625,5.5 9.15625,1.09375 4.375,-4.71875 -6.125,-1.875 z m 1.75,6.59375 -9.15625,1.09375 7.375,5.53125 6.15625,-1.90625 -4.375,-4.71875 z m -1.78125,6.625 -8.46875,-3.625 3.59375,8.5 0.0312,-0.0312 6.28125,1.4375 -1.43745,-6.2813 z m -4.875,4.875 -5.5,-7.40625 -1.09375,9.15625 -1.09375,-9.15625 -5.53125,7.375 1.90625,6.15625 4.71875,-4.34375 4.71875,4.34375 1.875,-6.125 z m -13.21875,-0.0312 3.625,-8.46875 -8.5,3.59375 0.0312,0.0312 -1.4375,6.28125 6.28125,-1.4375 z m -4.875,-4.875 7.40625,-5.5 -9.15625,-1.09375 9.15625,-1.09375 -7.375,-5.53125 -6.15625,1.90625 4.34375,4.71875 -4.34375,4.71875 6.125,1.875 z m 11.3125,-9.59375 c -0.19898,0.0119 -0.3937,0.0401 -0.59375,0.0937 -1.6004,0.42883 -2.55383,2.0871 -2.125,3.6875 0.42883,1.6004 2.0871,2.55383 3.6875,2.125 1.6004,-0.42883 2.55383,-2.0871 2.125,-3.6875 -0.37522,-1.40035 -1.70088,-2.30236 -3.09375,-2.21875 z"
     id="path3594" />
</svg>
