<?xml version="1.0" encoding="UTF-8" standalone="no"?>
<!-- Created with Inkscape (http://www.inkscape.org/) -->

<svg
   xmlns:dc="http://purl.org/dc/elements/1.1/"
   xmlns:cc="http://creativecommons.org/ns#"
   xmlns:rdf="http://www.w3.org/1999/02/22-rdf-syntax-ns#"
   xmlns:svg="http://www.w3.org/2000/svg"
   xmlns="http://www.w3.org/2000/svg"
   xmlns:sodipodi="http://sodipodi.sourceforge.net/DTD/sodipodi-0.dtd"
   xmlns:inkscape="http://www.inkscape.org/namespaces/inkscape"
   width="77.987061"
   height="63.483685"
   id="svg4467"
   version="1.1"
   inkscape:version="0.47 r22583"
   sodipodi:docname="Nouveau document 13">
  <defs
     id="defs4469" />
  <sodipodi:namedview
     id="base"
     pagecolor="#ffffff"
     bordercolor="#666666"
     borderopacity="1.0"
     inkscape:pageopacity="0.0"
     inkscape:pageshadow="2"
     inkscape:zoom="0.98994949"
     inkscape:cx="118.27371"
     inkscape:cy="94.449346"
     inkscape:document-units="px"
     inkscape:current-layer="svg4467"
     showgrid="false"
     inkscape:window-width="550"
     inkscape:window-height="483"
     inkscape:window-x="512"
     inkscape:window-y="258"
     inkscape:window-maximized="0" />
  <metadata
     id="metadata4472">
    <rdf:RDF>
      <cc:Work
         rdf:about="">
        <dc:format>image/svg+xml</dc:format>
        <dc:type
           rdf:resource="http://purl.org/dc/dcmitype/StillImage" />
        <dc:title></dc:title>
      </cc:Work>
    </rdf:RDF>
  </metadata>
  <path
     style="fill:#ffffff;fill-opacity:1;stroke:none"
     d="m 73.362061,0.264936 c -21.41137,4.07471 -40.40484,16.30582 -57.65625,29.15625 -5.56492,4.77617 -11.7080501,9.09906 -14.9062501,15.90625 2.38968,-0.30357 7.12161,-4.12564 5.28125,0.375 -1.18227,4.36654 3.69566,8.55028 1.34375,12.5 -1.91902,2.02146 -10.38512,5.25402 -6.34571,5.19263 4.45338,0.23771 9.7823901,-0.36053 13.2832101,-2.38013 4.05022,3.18611 9.84218,1.85264 14.65625,2.46875 -2.61494,-2.79075 -10.22779,-3.49547 -8.90625,-8.6875 3.57042,0.49981 7.58522,-0.91539 10.34375,-2.25 4.14383,3.22295 9.82541,1.8258 14.65625,2.46875 -2.61926,-2.79684 -10.22437,-3.49356 -8.90625,-8.6875 3.72792,0.4394 7.97474,-0.80398 10.875,-2.28125 4.14383,3.22295 9.82541,1.8258 14.65625,2.46875 -2.58677,-2.79156 -10.05605,-3.43634 -8.9375,-8.53125 3.6281,0.46723 7.72221,-0.85122 10.53125,-2.25 4.14383,3.22295 9.82541,1.8258 14.65625,2.46875 -3.12663,-2.69916 -11.37486,-4.20137 -8.59375,-9.9375 2.35593,-4.61232 2.47071,-11.10103 -1.75,-14.65625 2.88175,-1.24072 9.01274,3.5336 8.0625,-1.375 -1.16778,-2.78473 2.56786,-14.0973 -2.34375,-11.96875 z m -17.03125,15.84375 c -3.18042,4.97768 0.29974,10.48685 0.71875,15.5 0.006,1.47417 -4.24333,4.31051 -2.625,1.46875 1.90565,-5.80203 -2.28121,-14.01373 -8.96875,-12.78125 3.19384,-1.44411 8.44629,-4.09024 10.875,-4.1875 z m -14.25,5.84375 c -5.01541,4.21876 -3.21237,11.36596 -1.28125,16.53125 0.92825,2.35755 -2.46205,4.27444 -3.375,4.34375 2.3422,-5.60783 -0.61925,-14.15572 -7.4375,-14.15625 3.86137,-2.3316 8.38061,-4.87634 12.09375,-6.71875 z m -18.625,10.96875 c -3.18042,4.97768 0.29974,10.48685 0.71875,15.5 -0.27969,1.78334 -3.90617,3.98778 -2.34375,0.875 1.03021,-4.68499 -1.03044,-10.45503 -5.9375,-11.90625 2.1775,-1.24086 6.79036,-4.65963 7.5625,-4.46875 z"
     id="path4431" />
  <path
     style="fill:#000000;fill-opacity:1;stroke:none"
     d="m 73.705811,2.233686 c -20.03499,2.75581 -54.41121,23.91666 -68.5000001,39.5 17.7310201,-10.75639 50.3788001,-34.40511 68.5000001,-29.5 l 0,-10 z m -10.6875,11.625 c -3.31371,0 -6.02394,3.35812 -6,7.5 0.0294,5.08508 1.93776,5.00897 2.0625,9.5625 0.0417,1.52178 -0.15528,3.07561 -3.375,4.9375 3.76333,-0.0823 5.18436,-1.00437 7.3125,-3.03125 2.12814,2.02688 3.54917,2.94895 7.3125,3.03125 -3.21972,-1.86189 -3.4167,-3.41572 -3.375,-4.9375 0.12474,-4.55353 2.0331,-4.47742 2.0625,-9.5625 0.0239,-4.14188 -2.68629,-7.5 -6,-7.5 z m -16.25,8.3125 c -3.31371,0 -6.02394,3.35813 -6,7.5 0.0294,5.08508 1.93776,5.00897 2.0625,9.5625 0.0417,1.52178 -0.15528,3.07561 -3.375,4.9375 3.76333,-0.0823 5.18436,-1.00437 7.3125,-3.03125 2.12814,2.02688 3.54917,2.94895 7.3125,3.03125 -3.21972,-1.86189 -3.4167,-3.41572 -3.375,-4.9375 0.12474,-4.55353 2.0331,-4.47742 2.0625,-9.5625 0.0239,-4.14187 -2.68629,-7.5 -6,-7.5 z m -16.625,8.5 c -3.31371,0 -6.02394,3.35813 -6,7.5 0.0294,5.08508 1.93776,5.00897 2.0625,9.5625 0.0417,1.52178 -0.15528,3.07561 -3.375,4.9375 3.76333,-0.0823 5.18436,-1.00437 7.3125,-3.03125 2.12814,2.02688 3.54917,2.94895 7.3125,3.03125 -3.21972,-1.86189 -3.4167,-3.41572 -3.375,-4.9375 0.12474,-4.55353 2.0331,-4.47742 2.0625,-9.5625 0.0239,-4.14187 -2.68629,-7.5 -6,-7.5 z m -16.09375,8.46875 c -3.31371,0 -6.0239401,3.35813 -6.0000001,7.5 0.0294,5.08508 1.93776,5.00897 2.0625001,9.5625 0.0417,1.52178 -0.1552801,3.07561 -3.3750001,4.9375 3.7633301,-0.0823 5.1843601,-1.00437 7.3125001,-3.03125 2.12814,2.02688 3.54917,2.94895 7.3125,3.03125 -3.21972,-1.86189 -3.4167,-3.41572 -3.375,-4.9375 0.12474,-4.55353 2.0331,-4.47742 2.0625,-9.5625 0.0239,-4.14187 -2.68629,-7.5 -6,-7.5 z"
     id="path4405" />
</svg>
