<?xml version="1.0" encoding="UTF-8" standalone="no"?>
<!-- Created with Inkscape (http://www.inkscape.org/) -->

<svg
   xmlns:dc="http://purl.org/dc/elements/1.1/"
   xmlns:cc="http://creativecommons.org/ns#"
   xmlns:rdf="http://www.w3.org/1999/02/22-rdf-syntax-ns#"
   xmlns:svg="http://www.w3.org/2000/svg"
   xmlns="http://www.w3.org/2000/svg"
   xmlns:sodipodi="http://sodipodi.sourceforge.net/DTD/sodipodi-0.dtd"
   xmlns:inkscape="http://www.inkscape.org/namespaces/inkscape"
   width="67.457283"
   height="65.064751"
   id="svg4728"
   version="1.1"
   inkscape:version="0.47 r22583"
   sodipodi:docname="Nouveau document 19">
  <defs
     id="defs4730" />
  <sodipodi:namedview
     id="base"
     pagecolor="#ffffff"
     bordercolor="#666666"
     borderopacity="1.0"
     inkscape:pageopacity="0.0"
     inkscape:pageshadow="2"
     inkscape:zoom="0.35"
     inkscape:cx="-51.271355"
     inkscape:cy="66.818088"
     inkscape:document-units="px"
     inkscape:current-layer="svg4728"
     showgrid="false"
     inkscape:window-width="550"
     inkscape:window-height="483"
     inkscape:window-x="225"
     inkscape:window-y="225"
     inkscape:window-maximized="0" />
  <metadata
     id="metadata4733">
    <rdf:RDF>
      <cc:Work
         rdf:about="">
        <dc:format>image/svg+xml</dc:format>
        <dc:type
           rdf:resource="http://purl.org/dc/dcmitype/StillImage" />
        <dc:title></dc:title>
      </cc:Work>
    </rdf:RDF>
  </metadata>
  <path
     style="fill:#ffffff;fill-opacity:1;stroke:none"
     d="m 32.954075,0.05423597 c -3.19639,-0.0498 -5.42122,2.78799003 -7,4.71875003 -4.32871,0.60375 -7.39837,4.84035 -7.6875,9.03125 -4.49216,-1.43823 -9.4058605,1.14487 -11.3750005,5.03125 -6.60644998,-0.0752 -9.32517,9.92082 -4.28125,13.6875 -1.46179,4.82184 3.08277,8.99662 5.875,11 -2.61246,3.84788 -1.28514,9.08101 1.46875,12.09375 -1.95199,6.17803 6.6080305,11.82803 11.6875005,8.15625 3.96121,2.40538 9.13865,0.90431 12,-2.53125 2.8397,3.78558 8.21855,4.66637 12.21875,2.625 5.22596,3.91389 13.41636,-2.50731 11.4375,-8.53125 3.51855,-2.99664 3.69079,-8.45217 1.28125,-12.15625 4.43156,-1.43888 7.0295,-6.3942 6.25,-10.8125 5.39675,-3.7619 1.78457,-13.54955 -4.53125,-13.5625 -1.77159,-4.2598 -6.86669,-6.06711 -11.15625,-4.96875 -0.0851,-4.76076 -4.06639,-8.58377 -8.375,-9.34375 -0.93572,-3.28045 -4.63675,-4.80741003 -7.8125,-4.43750003 z"
     id="path4677" />
  <path
     style="fill:#000000;fill-opacity:1;stroke:none"
     d="m 33.579075,2.022986 c -2.7375,0.13125 -5.46249,1.7875 -5.3125,4.5625 -5.39999,-0.0139 -8.24374,3.58893 -8.09375,9.875 -6.31367,-2.36687 -10.12324,-0.326 -11.8750005,4.625 -3.13848,-1.01976 -5.31013,1.19968 -6.03125,3.84375 -0.72111,2.64408 0.002,5.72264 2.6875,6.4375 -1.68193,5.13141 0.85024,8.98141 6.8750005,10.78125 -4.2020705,5.27327 -3.4173505,9.52279 0.75,12.71875 -1.93968,2.66976 -0.51058,5.40337 1.78125,6.90625 2.29183,1.50288 5.459,1.77068 6.96875,-0.5625 4.36051,3.18531 8.77024,1.95496 12.34375,-3.21875 3.71668,5.62594 8.04767,6.19455 12.375,3.21875 1.93969,2.66976 4.98747,2.15275 7.125,0.4375 2.13754,-1.71524 3.34621,-4.6244 1.59375,-6.78125 4.37689,-3.16277 4.56622,-7.72137 0.75,-12.71875 6.4991,-1.79625 8.36793,-5.74614 6.875,-10.78125 3.13849,-1.01976 3.59576,-4.09329 2.625,-6.65625 -0.97075,-2.56296 -3.34467,-4.62517 -5.9375,-3.625 -1.65544,-5.14 -5.97419,-6.71015 -11.90625,-4.625 0.30001,-6.73607 -2.84374,-9.73892 -8.09375,-9.875 0,-3.3 -2.76249,-4.69375 -5.5,-4.5625 z m -0.0312,21.90625 c 0.81208,-0.0186 1.66597,0.26917 1.875,0.9375 0.85568,-0.99597 3.82973,-0.30422 4.09375,0.875 1.05271,-0.55753 2.87683,0.30849 3.1875,1.46875 0.67023,0.44252 1.15114,0.92117 1.4375,1.375 2.00484,3.17732 -0.0417,12.6875 -3.4375,15.5 1.32588,-4.477 3.10985,-9.76432 0.1875,-11.59375 -0.0727,-0.22739 -0.19337,-0.44337 -0.375,-0.625 -0.5938,-0.5938 -1.54732,-0.60891 -2.125,-0.0312 -0.57767,0.57767 -0.56255,1.53122 0.0312,2.125 0.42803,0.42803 1.03727,0.55421 1.5625,0.375 0.88729,2.91877 0.21013,7.52905 -3.40625,12.25 2.00723,-6.83412 2.79192,-11.3038 0.90625,-13.125 -0.0398,-0.32896 -0.15098,-0.651 -0.40625,-0.90625 -0.59379,-0.5938 -1.54732,-0.60891 -2.125,-0.0312 -0.57767,0.57767 -0.56254,1.53122 0.0312,2.125 0.10924,0.10925 0.24619,0.18013 0.375,0.25 0.70141,5.73138 -0.6217,10.11976 -1.71875,11.125 -1.13635,-1.01719 -2.41985,-5.38017 -1.71875,-11.09375 0.15435,-0.0699 0.31112,-0.15489 0.4375,-0.28125 0.57767,-0.57767 0.56254,-1.53122 -0.0312,-2.125 -0.59379,-0.5938 -1.54732,-0.60891 -2.125,-0.0312 -0.26477,0.26477 -0.38871,0.61778 -0.40625,0.96875 -1.88567,1.8212 -1.10097,6.29088 0.90625,13.125 -3.64375,-4.7567 -4.29288,-9.39771 -3.375,-12.3125 0.53837,0.21176 1.16814,0.1131 1.59375,-0.3125 0.57768,-0.57768 0.56255,-1.53122 -0.0312,-2.125 -0.5938,-0.59389 -1.54732,-0.60891 -2.125,-0.0312 -0.19256,0.19256 -0.31335,0.43924 -0.375,0.6875 -2.92235,1.82943 -1.13838,7.11675 0.1875,11.59375 -3.3958,-2.8125 -5.44234,-12.32268 -3.4375,-15.5 0.28636,-0.45383 0.79852,-0.93248 1.46875,-1.375 0.0403,-1.12626 1.97146,-2.22555 3.1875,-1.46875 0.19719,-1.26079 2.86623,-2.059 4.09375,-0.875 0.0546,-0.59398 0.84417,-0.91891 1.65625,-0.9375 z"
     id="path4639" />
</svg>
