<?xml version="1.0" encoding="UTF-8" standalone="no"?>
<!-- Created with Inkscape (http://www.inkscape.org/) -->

<svg
   xmlns:dc="http://purl.org/dc/elements/1.1/"
   xmlns:cc="http://creativecommons.org/ns#"
   xmlns:rdf="http://www.w3.org/1999/02/22-rdf-syntax-ns#"
   xmlns:svg="http://www.w3.org/2000/svg"
   xmlns="http://www.w3.org/2000/svg"
   xmlns:sodipodi="http://sodipodi.sourceforge.net/DTD/sodipodi-0.dtd"
   xmlns:inkscape="http://www.inkscape.org/namespaces/inkscape"
   width="68.543823"
   height="67.194954"
   id="svg3682"
   version="1.1"
   inkscape:version="0.47 r22583"
   sodipodi:docname="Nouveau document 5">
  <defs
     id="defs3684" />
  <sodipodi:namedview
     id="base"
     pagecolor="#ffffff"
     bordercolor="#666666"
     borderopacity="1.0"
     inkscape:pageopacity="0.0"
     inkscape:pageshadow="2"
     inkscape:zoom="0.35"
     inkscape:cx="157.84334"
     inkscape:cy="-20.688232"
     inkscape:document-units="px"
     inkscape:current-layer="svg3682"
     showgrid="false"
     inkscape:window-width="550"
     inkscape:window-height="483"
     inkscape:window-x="175"
     inkscape:window-y="175"
     inkscape:window-maximized="0" />
  <metadata
     id="metadata3687">
    <rdf:RDF>
      <cc:Work
         rdf:about="">
        <dc:format>image/svg+xml</dc:format>
        <dc:type
           rdf:resource="http://purl.org/dc/dcmitype/StillImage" />
        <dc:title></dc:title>
      </cc:Work>
    </rdf:RDF>
  </metadata>
  <g
     id="g3707">
    <path
       id="path3659"
       d="m 16.75,33.15629 c 1.14659,4.70704 3.22746,9.45883 8.03125,10.4375 -2.24914,1.45866 -2.34591,2.45029 -2.09375,3.8125 C 16.48613,43.43411 8.30594,39.99097 0,39.78129 17.00531,51.09619 31.69044,67.1801 34.05919,67.19495 36.42794,67.20975 59.60805,44.73739 68.54382,40.0826 56.65814,39.47485 50.53605,43.38934 44.9375,47.75 45.40731,45.54544 44.9315,44.25946 43.46875,43.15625 47.61175,42.4234 49.60948,39.21569 51.625,32.96875 68.20581,36.51869 58.98641,8.89549 55.9375,0 52.30501,10.278768 48.162,22.423762 41.21875,30.0625 41.8346,24.28893 38.02728,19.307874 34.0625,15.5625 30.05922,19.353897 26.13144,24.46579 26.96875,30.3125 19.57159,21.607847 15.99246,10.586004 12.1875,0 8.9559,9.054484 0.52086,37.03246 16.75,33.15629 z"
       style="fill:#ffffff;fill-opacity:1;stroke:none" />
    <path
       id="path3647"
       d="M 12.25,6.03129 C 9.84926,12.857819 3.25473,35.63532 18.15625,30.43754 19.8555,38.35941 23.44981,45.93131 32.375,39.03129 21.68735,28.70796 17.60098,21.185792 12.25,6.03129 z m 43.625,0 c -5.35098,15.154502 -9.43735,22.67667 -20.125,33 8.92519,6.90002 12.5195,-0.67188 14.21875,-8.59375 C 64.87027,35.63532 58.27574,12.857819 55.875,6.03129 z M 34.0625,18.43754 c -9.34598,9.53386 -3.95654,16.22017 -0.5,19.3125 -1.81887,-4.17597 -1.62815,-9.9106 0.5,-12.8125 2.12815,2.9019 2.31887,8.63653 0.5,12.8125 3.45654,-3.09233 8.84598,-9.77864 -0.5,-19.3125 z m 0,21.5 c -2.13237,0.0145 -8.28255,4.48915 -9,6.90625 1.53782,6.89625 4.65484,11.15634 9,16.21875 4.28313,-4.82538 7.528,-9.2681 9,-16.21875 -1.0898,-2.6074 -6.86763,-6.92073 -9,-6.90625 z m -28.5,1.8125 c 10.48258,6.77711 17.49468,10.7844 26.5,21.6875 -6.93043,-13.48452 -12.09611,-17.73563 -26.5,-21.6875 z m 57,0 c -14.40389,3.95187 -19.56957,8.20298 -26.5,21.6875 9.00532,-10.9031 16.01742,-14.91039 26.5,-21.6875 z"
       style="fill:#000000;fill-opacity:1;stroke:none" />
  </g>
</svg>
