<?xml version="1.0" encoding="UTF-8" standalone="no"?>
<!-- Created with Inkscape (http://www.inkscape.org/) -->

<svg
   xmlns:dc="http://purl.org/dc/elements/1.1/"
   xmlns:cc="http://creativecommons.org/ns#"
   xmlns:rdf="http://www.w3.org/1999/02/22-rdf-syntax-ns#"
   xmlns:svg="http://www.w3.org/2000/svg"
   xmlns="http://www.w3.org/2000/svg"
   xmlns:sodipodi="http://sodipodi.sourceforge.net/DTD/sodipodi-0.dtd"
   xmlns:inkscape="http://www.inkscape.org/namespaces/inkscape"
   width="56.897099"
   height="63.162987"
   id="svg3618"
   version="1.1"
   inkscape:version="0.47 r22583"
   sodipodi:docname="Nouveau document 3">
  <defs
     id="defs3620" />
  <sodipodi:namedview
     id="base"
     pagecolor="#ffffff"
     bordercolor="#666666"
     borderopacity="1.0"
     inkscape:pageopacity="0.0"
     inkscape:pageshadow="2"
     inkscape:zoom="0.98994949"
     inkscape:cx="-24.370992"
     inkscape:cy="-35.026432"
     inkscape:document-units="px"
     inkscape:current-layer="svg3618"
     showgrid="false"
     inkscape:window-width="550"
     inkscape:window-height="483"
     inkscape:window-x="25"
     inkscape:window-y="25"
     inkscape:window-maximized="0" />
  <metadata
     id="metadata3623">
    <rdf:RDF>
      <cc:Work
         rdf:about="">
        <dc:format>image/svg+xml</dc:format>
        <dc:type
           rdf:resource="http://purl.org/dc/dcmitype/StillImage" />
        <dc:title></dc:title>
      </cc:Work>
    </rdf:RDF>
  </metadata>
  <g
     id="g3643">
    <path
       id="path3595"
       d="m 29.10968,4.4e-4 c -3.06754,0.0249 -4.99297,1.407 -6.30897,3.01332 C 20.32872,1.07355 16.05104,2.02455 13.81136,4.282 12.18159,3.56551 10.8928,3.86446 9.608,4.57187 7.55285,1.29257 3.64063,-2.21818 0,4.67374 c 11.33318,0.7839 -9.361911,14.23376 24.39277,31.13573 0.47172,9.51137 5.49579,8.02487 5.60892,12.59007 0.11094,4.47687 -4.94943,3.24006 -6.03603,14.76345 l 7.60925,0 c 0.0612,-6.22453 6.15177,-8.4344 6.1875,-14.74737 0.0357,-6.31297 -5.88124,-7.99791 -5.74372,-12.3249 C 65.59729,19.45624 47.35114,4.6489 56.8971,4.92033 55.49241,-0.09455 50.88349,0.63206 48.23744,4.60285 46.81653,3.55158 45.01317,3.71439 43.72867,4.13974 41.46637,1.82796 37.03388,1.09958 34.81955,2.73441 33.31469,0.90297 32.17723,-0.0244 29.10968,4.9e-4 l 0,-5e-5 z"
       style="fill:#ffffff;fill-opacity:1;stroke:none" />
    <path
       id="path3584"
       d="m 28.85616,1.96919 c -3.48129,1e-5 -4.36618,1.75948 -5.59375,3.5 -1.97007,-1.95363 -4.2665,-2.99118 -7.40625,-0.5 0.89292,1.19864 2.66087,-0.57523 2.125,6.78125 -0.85811,11.78022 3.44808,19.95904 8.5,21.9375 -0.6571,11.78757 5.92239,9.0385 5.375,14.875 0.70721,3.70958 -5.67827,5.41989 -5.875,13 l 4,0 c 1.4395,-7.59697 5.26287,-5.33122 5.875,-13 -0.62724,-8.74795 -5.74357,-5.21269 -5.375,-14.65625 5.36532,-1.43061 10.15018,-9.7986 9.25,-22.15625 -0.53587,-7.35648 1.23208,-5.58261 2.125,-6.78125 -3.13975,-2.49118 -5.43618,-1.45363 -7.40625,0.5 -1.22757,-1.74052 -2.11246,-3.50001 -5.59375,-3.5 z M 4.57491,2.43794 c -0.74465,-0.0298 -1.45296,0.31938 -2.09375,1.125 2.663,0.63793 3.14351,3.19409 2.875,6.59375 -0.7152,9.05542 6.63889,16.4085 16.3125,22.40625 -2.85783,-5.75228 -5.9023,-5.35345 -5.8125,-25.5 -1.0213,-1.9509 -6.21168,-2.08331 -6.875,0 C 7.94961,4.37585 6.21314,2.50352 4.57491,2.43794 z m 48.5625,0 c -1.63823,0.0656 -3.3747,1.93791 -4.40625,4.625 -0.66332,-2.08331 -5.8537,-1.9509 -6.875,0 0.0898,20.14655 -2.95467,19.74772 -5.8125,25.5 9.67361,-5.99775 17.0277,-13.35083 16.3125,-22.40625 -0.26851,-3.39966 0.212,-5.95582 2.875,-6.59375 -0.64079,-0.80562 -1.3491,-1.1548 -2.09375,-1.125 z"
       style="fill:#000000;fill-opacity:1;stroke:none" />
  </g>
</svg>
