<?xml version="1.0" encoding="UTF-8" standalone="no"?>
<!-- Created with Inkscape (http://www.inkscape.org/) -->

<svg
   xmlns:dc="http://purl.org/dc/elements/1.1/"
   xmlns:cc="http://creativecommons.org/ns#"
   xmlns:rdf="http://www.w3.org/1999/02/22-rdf-syntax-ns#"
   xmlns:svg="http://www.w3.org/2000/svg"
   xmlns="http://www.w3.org/2000/svg"
   xmlns:sodipodi="http://sodipodi.sourceforge.net/DTD/sodipodi-0.dtd"
   xmlns:inkscape="http://www.inkscape.org/namespaces/inkscape"
   width="450"
   height="449.99469"
   id="svg3723"
   version="1.1"
   inkscape:version="0.47 r22583"
   sodipodi:docname="test2.svg">
  <defs
     id="defs3725">
    <inkscape:perspective
       id="perspective3667"
       inkscape:persp3d-origin="0.5 : 0.33333333 : 1"
       inkscape:vp_z="1 : 0.5 : 1"
       inkscape:vp_y="0 : 1000 : 0"
       inkscape:vp_x="0 : 0.5 : 1"
       sodipodi:type="inkscape:persp3d" />
    <inkscape:perspective
       id="perspective3645"
       inkscape:persp3d-origin="0.5 : 0.33333333 : 1"
       inkscape:vp_z="1 : 0.5 : 1"
       inkscape:vp_y="0 : 1000 : 0"
       inkscape:vp_x="0 : 0.5 : 1"
       sodipodi:type="inkscape:persp3d" />
  </defs>
  <sodipodi:namedview
     id="base"
     pagecolor="#ffffff"
     bordercolor="#666666"
     borderopacity="1.0"
     inkscape:pageopacity="0.0"
     inkscape:pageshadow="2"
     inkscape:zoom="0.7071068"
     inkscape:cx="314.54186"
     inkscape:cy="388.18486"
     inkscape:document-units="px"
     inkscape:current-layer="svg3723"
     showgrid="false"
     inkscape:object-paths="false"
     inkscape:object-nodes="true"
     inkscape:window-width="1280"
     inkscape:window-height="1002"
     inkscape:window-x="-8"
     inkscape:window-y="-8"
     inkscape:window-maximized="1"
     inkscape:snap-nodes="false">
    <inkscape:grid
       type="xygrid"
       id="grid2872" />
  </sodipodi:namedview>
  <metadata
     id="metadata3728">
    <rdf:RDF>
      <cc:Work
         rdf:about="">
        <dc:format>image/svg+xml</dc:format>
        <dc:type
           rdf:resource="http://purl.org/dc/dcmitype/StillImage" />
        <dc:title />
      </cc:Work>
    </rdf:RDF>
  </metadata>
  <g
     id="g2894">
    <path
       id="rect2814"
       d="m 121.27688,226.08917 c 33.2146,21.58948 66.4292,43.17897 99.64379,64.76846 35.12729,-22.83275 70.25459,-45.66549 105.38188,-68.49823 C 292.52899,200.40659 258.75544,178.45378 224.98188,156.50097 189.85459,179.33371 154.72729,202.16645 119.6,224.99919 l 0.83844,0.54499 0.83844,0.54499 z"
       style="fill:#ffffff;fill-opacity:1;stroke:none" />
    <path
       id="rect2818"
       d="m 224.98502,158.68092 -102.03125,66.3125 97.96875,63.6875 102.03125,-66.3125 -97.96875,-63.6875 z m -20.96875,20 41.53125,0 47.40625,30.8125 0,26 -51.0625,33.1875 -41.53125,0 -47.40625,-30.8125 0,-26 51.0625,-33.1875 z"
       style="fill:#000000;fill-opacity:1;stroke:none" />
  </g>
  <g
     id="g2900">
    <path
       id="path3672"
       d="m 320.67385,25.897852 c -5.80566,0.01516 -10.22228,4.564793 -14.53125,7.375 -10.17383,-3.111345 -19.5878,6.429882 -21.1875,15.84375 -0.56971,4.44291 -1.38425,9.94014 -6.875,10.375 -2.15988,1.57767 -10.854,-0.1676 -7.64446,2.69075 3.84062,3.82553 8.42273,8.86992 14.48821,7.30925 0.29652,5.62114 -0.85456,14.01219 6.01238,7.27302 2.69305,-2.98564 3.98208,-1.32711 5.48762,1.22698 2.52151,2.87925 6.59044,4.25843 9.9375,6.125 -0.87533,-6.77449 -2.91817,-15.90109 4.15788,-20.12834 6.69647,-4.62302 10.87348,-13.30439 7.65462,-21.27791 -0.56571,-2.720561 -4.9904,-5.517651 -0.65625,-6.78125 6.28439,-4.34167 17.03546,1.968514 14,9.75 -1.68043,8.53401 -10.09784,13.47551 -14.28125,20.75 -5.53973,7.67275 -7.72474,17.22687 -6.40625,26.59375 3.18489,-0.76005 10.19396,1.73945 8.0625,-3.46875 -0.95463,-13.66609 10.5921,-23.00964 17.34375,-33.40625 4.79596,-7.542614 6.01172,-18.642204 -1.40625,-25.03125 -3.7873,-3.369948 -9.07364,-5.34385 -14.15625,-5.21875 z"
       style="fill:#ffffff;fill-opacity:1;stroke:none" />
    <path
       sodipodi:nodetypes="czcczzzzzzzcczzzzzzzzcczczccczc"
       id="path2818"
       d="m 273.55118,62.385402 c 0,0 7.65127,-0.56701 10.72795,-3.97073 3.07668,-3.40372 1.00367,-13.673261 8.91673,-19.853672 5.23898,-4.223435 6.12038,-4.443831 14.07173,-3.065128 0,0 5.07765,-4.765297 7.80215,-5.990932 2.7245,-1.225635 4.71114,-1.895666 7.94147,-1.532564 3.23033,0.363102 7.78499,2.046389 10.4493,4.597692 2.66431,2.551303 4.36359,5.727024 4.73701,9.613356 0.37342,3.886332 -1.3306,8.095548 -3.34377,12.260508 -2.01317,4.16496 -6.14746,7.88992 -8.91674,12.12119 -2.76928,4.23127 -5.54836,6.07885 -7.66282,13.23578 -2.11446,7.15693 -1.25391,11.0066 -1.25391,11.0066 l -4.31905,0.13932 c 0,0 -0.42969,-6.39479 0.27865,-9.892 0.70834,-3.49721 2.17733,-7.10043 4.17972,-10.72795 2.00239,-3.62752 5.54057,-7.62239 7.94147,-10.72795 2.4009,-3.10556 4.92039,-4.93926 6.4089,-7.94147 1.48851,-3.002213 2.59972,-6.933413 2.36851,-9.613352 -0.23121,-2.679939 -1.14196,-4.155296 -2.50783,-5.712284 -1.36587,-1.556988 -3.21074,-2.600022 -5.29432,-3.204452 -2.08358,-0.60443 -4.40455,-0.82135 -6.82687,-0.139324 -2.42232,0.682026 -4.96227,2.473678 -6.9662,4.458368 4.95925,4.683406 6.21094,11.346395 3.62242,17.554824 -2.88639,5.22091 -9.26808,8.95283 -10.93693,11.9122 -1.66885,2.95937 -1.97605,7.00941 -1.04493,13.72342 0,0 -3.91238,-1.86786 -5.43364,-3.34378 -1.52126,-1.47592 -3.4831,-5.29431 -3.4831,-5.29431 l -7.66282,4.59769 -0.5573,-9.47403 c 0,0 -4.31294,1.02884 -6.68755,0.27865 -2.37461,-0.75019 -6.54823,-5.01567 -6.54823,-5.01567 z"
       style="fill:#000000;fill-opacity:1;stroke:none" />
  </g>
  <g
     id="g2890">
    <path
       id="path3680"
       d="m 372,86.000013 c -0.74441,7.89734 -4.2311,10.698458 -11.45562,6.553208 -6.74216,-3.149634 -0.0566,7.950759 -0.45063,11.571789 -3.52675,1.91844 -16.35406,1.05554 -9.16178,6.20013 6.70861,4.35881 5.54363,8.48395 -0.77572,12.45612 -6.63385,4.79037 9.36875,3.2757 9.56494,7.1166 -0.74282,4.64736 -6.59275,14.05926 2.04054,9.8106 7.58736,-4.34455 8.77222,1.68018 9.69524,8.13776 1.61302,6.30397 7.99687,-9.49097 11.39109,-4.99168 3.91115,4.18589 8.43887,11.10884 9.10364,1.46778 -0.11539,-9.02399 7.03391,-4.58262 12.5602,-3.09975 4.18183,-0.50209 -5.78691,-12.92994 1.37147,-12.87069 6.85305,-0.91473 11.75385,-2.45177 4.20127,-7.68366 -7.69293,-4.38631 1.82438,-8.26904 4.9973,-12.32748 -2.3137,-2.92965 -15.00791,-1.19046 -10.9042,-7.93211 3.51702,-7.272591 1.80326,-9.49584 -5.8008,-6.257879 -7.08077,3.788608 -5.17712,-6.969555 -7.34569,-11.150738 -4.33588,2.547309 -8.86931,12.867858 -12.88578,5.16056 C 375.69629,86.83613 372.57186,78.984336 372,86.000013 z m 11.28125,12.96875 c -4.11488,5.163937 -4.12948,-5.104686 0,0 z m -9,1.468747 c -1.0246,6.67057 -6.2561,-2.414038 0,0 z m 17.625,1.78125 c -6.2419,2.48232 -1.12491,-6.611927 0,0 z m -24.1875,6.375 c -6.30805,3.05626 -0.54351,-6.78126 0,0 z m 30.53125,-1.625 c -0.64656,6.94896 -6.12377,-3.03795 0,0 z m -32.71875,9.625 c -3.875,5.72384 -3.741,-5.63679 0,0 z m 35.25,0 c -3.86491,5.6295 -3.76235,-5.54881 0,0 z m -33.0625,7.96875 c -0.59408,6.96913 -6.14809,-2.97845 0,0 z m 30.53125,1.65625 c -6.30805,3.05626 -0.54351,-6.78126 0,0 z m -23.96875,6.53125 c -6.2419,2.48232 -1.12491,-6.61193 0,0 z m 17.625,-1.78125 c -1.11015,6.67572 -6.22708,-2.45241 0,0 z m -8.59375,3.25 c -4.18445,5.141 -4.20338,-5.08179 0,0 z"
       style="fill:#ffffff;fill-opacity:1;stroke:none" />
    <path
       id="path3594"
       d="m 373.90625,86.593763 -3.375,10.9375 6.28125,1.4375 4.71875,-4.375 -7.625,-8 z m 7.625,8 4.71875,4.375 6.28125,-1.4375 -2.625,-10.75 -8.375,7.8125 z m 11,2.9375 1.90625,6.156247 6.15625,1.90625 3.09375,-10.624997 -11.15625,2.5625 z m 8.0625,8.062497 -1.4375,6.28125 4.375,4.71875 8,-7.625 -10.9375,-3.375 z m 2.9375,11 -4.375,4.71875 1.4375,6.28125 10.75,-2.625 -7.8125,-8.375 z m -2.9375,11 -6.15625,1.90625 -1.90625,6.15625 10.625,3.09375 -2.5625,-11.15625 z m -8.0625,8.0625 -6.28125,-1.4375 -4.71875,4.375 7.625,8 3.375,-10.9375 z m -11,2.9375 -4.71875,-4.375 -6.28125,1.4375 2.625,10.75 8.375,-7.8125 z m -11,-2.9375 -1.90625,-6.15625 -6.15625,-1.90625 -3.09375,10.625 11.15625,-2.5625 z m -8.0625,-8.0625 1.4375,-6.28125 -4.375,-4.71875 -8,7.625 10.9375,3.375 z m -2.9375,-11 4.375,-4.71875 -1.4375,-6.28125 -10.75,2.625 7.8125,8.375 z m 2.9375,-11 6.15625,-1.90625 1.90625,-6.156247 -10.625,-3.09375 2.5625,11.156247 z m 6.15625,-1.90625 1.4375,6.28125 8.46875,3.625 -3.59375,-8.5 -0.0312,0.0312 -6.28125,-1.4375 z m 6.3125,1.40625 5.5,7.40625 1.09375,-9.125 1.09375,9.125 5.53125,-7.375 -1.90625,-6.156247 -4.71875,4.374997 -4.71875,-4.374997 -1.875,6.124997 z m 13.21875,0.0312 -3.625,8.46875 8.5,-3.59375 -0.0312,-0.0312 1.4375,-6.28125 -6.28125,1.4375 z m 4.875,4.875 -7.40625,5.5 9.15625,1.09375 4.375,-4.71875 -6.125,-1.875 z m 1.75,6.59375 -9.15625,1.09375 7.375,5.53125 6.15625,-1.90625 -4.375,-4.71875 z m -1.78125,6.625 -8.46875,-3.625 3.59375,8.5 0.0312,-0.0312 6.28125,1.4375 L 393,123.21876 z m -4.875,4.875 -5.5,-7.40625 -1.09375,9.15625 -1.09375,-9.15625 -5.53125,7.375 1.90625,6.15625 4.71875,-4.34375 4.71875,4.34375 1.875,-6.125 z m -13.21875,-0.0312 3.625,-8.46875 -8.5,3.59375 0.0312,0.0312 -1.4375,6.28125 6.28125,-1.4375 z m -4.875,-4.875 7.40625,-5.5 -9.15625,-1.09375 9.15625,-1.09375 -7.375,-5.53125 -6.15625,1.90625 4.34375,4.71875 -4.34375,4.71875 6.125,1.875 z m 11.3125,-9.59375 c -0.19898,0.0119 -0.3937,0.0401 -0.59375,0.0937 -1.6004,0.42883 -2.55383,2.0871 -2.125,3.6875 0.42883,1.6004 2.0871,2.55383 3.6875,2.125 1.6004,-0.42883 2.55383,-2.0871 2.125,-3.6875 -0.37522,-1.40035 -1.70088,-2.30236 -3.09375,-2.21875 z"
       style="fill:#000000;fill-opacity:1;stroke:none" />
  </g>
  <g
     id="g2884">
    <path
       sodipodi:nodetypes="cssssssssssssssssss"
       id="path3615"
       d="m 420.91486,166.93314 c -4.23575,-0.22164 -4.32229,6.51184 -6.82341,7.06803 -3.2368,0.71979 -8.65906,-5.93979 -10.02593,-4.79528 -1.47831,1.23782 0.21914,6.06713 -1.18688,7.29689 -1.46589,1.28212 -2.67686,-1.88045 -3.8016,-0.61283 -1.06171,1.19658 0.32305,11.05928 1.32227,13.76676 1.71855,4.65656 4.00235,4.38297 4.6699,7.51468 1.02903,4.82756 2.61015,17.98358 1.73666,19.74151 -0.56401,1.13511 -6.07647,-4.83569 -6.93489,-3.41709 -1.5063,2.4893 16.43068,22.2988 20.72295,22.1149 3.23409,-0.13856 22.66026,-19.57053 21.34605,-21.74597 -0.67236,-1.11297 -5.59875,2.87695 -7.30539,2.29694 -1.05227,-0.35762 1.24087,-18.44314 1.93491,-19.26004 1.8555,-2.18393 3.57981,-3.94477 4.85884,-6.8592 0.84519,-1.92588 2.18352,-12.93415 1.49858,-14.3466 -0.92762,-1.91287 -2.65179,2.59809 -4.65312,0.74128 -1.0599,-0.98337 1.17113,-7.05393 -0.5523,-7.33119 -2.9416,-0.47323 -7.3475,4.82979 -10.11878,4.84012 -1.51937,0.006 -2.66541,-6.80242 -6.68786,-7.01291 z"
       style="fill:#ffffff;fill-opacity:1;stroke:none" />
    <path
       id="path2819"
       d="m 420.83459,169.54244 -8.5,13.5 3,6 0,26.5 5.5,8 5.5,-8 0,-26.5 3,-6 -8.5,-13.5 z m -15.3125,2.5 0,8.40625 5.21875,3.90625 0,-1.8125 3.28125,-5.1875 -8.5,-5.3125 z m 30.625,0 -8.5,5.3125 3.28125,5.1875 0,1.8125 5.21875,-3.90625 0,-8.40625 z m -35.3125,7 1.3125,10.1875 5,6.40625 2.5,23 9.6875,5.90625 -5.59375,-8.09375 0,-26.59375 -1.09375,-2.21875 -11.8125,-8.59375 z m 40,0 -11.8125,8.59375 -1.09375,2.21875 0,26.59375 -5.59375,8.09375 9.6875,-5.90625 2.5,-23 5,-6.40625 1.3125,-10.1875 z m -38,37.5 18,17 18,-17 -18,12 -18,-12 z"
       style="fill:#000000;fill-opacity:1;stroke:none" />
  </g>
  <g
     id="g2878">
    <path
       id="path4431"
       d="m 435.65163,252.52446 c -21.41137,4.07471 -40.40484,16.30582 -57.65625,29.15625 -5.56492,4.77617 -11.70805,9.09906 -14.90625,15.90625 2.38968,-0.30357 7.12161,-4.12564 5.28125,0.375 -1.18227,4.36654 3.69566,8.55028 1.34375,12.5 -1.91902,2.02146 -10.38512,5.25402 -6.34571,5.19263 4.45338,0.23771 9.78239,-0.36053 13.28321,-2.38013 4.05022,3.18611 9.84218,1.85264 14.65625,2.46875 -2.61494,-2.79075 -10.22779,-3.49547 -8.90625,-8.6875 3.57042,0.49981 7.58522,-0.91539 10.34375,-2.25 4.14383,3.22295 9.82541,1.8258 14.65625,2.46875 -2.61926,-2.79684 -10.22437,-3.49356 -8.90625,-8.6875 3.72792,0.4394 7.97474,-0.80398 10.875,-2.28125 4.14383,3.22295 9.82541,1.8258 14.65625,2.46875 -2.58677,-2.79156 -10.05605,-3.43634 -8.9375,-8.53125 3.6281,0.46723 7.72221,-0.85122 10.53125,-2.25 4.14383,3.22295 9.82541,1.8258 14.65625,2.46875 -3.12663,-2.69916 -11.37486,-4.20137 -8.59375,-9.9375 2.35593,-4.61232 2.47071,-11.10103 -1.75,-14.65625 2.88175,-1.24072 9.01274,3.5336 8.0625,-1.375 -1.16778,-2.78473 2.56786,-14.0973 -2.34375,-11.96875 z m -17.03125,15.84375 c -3.18042,4.97768 0.29974,10.48685 0.71875,15.5 0.006,1.47417 -4.24333,4.31051 -2.625,1.46875 1.90565,-5.80203 -2.28121,-14.01373 -8.96875,-12.78125 3.19384,-1.44411 8.44629,-4.09024 10.875,-4.1875 z m -14.25,5.84375 c -5.01541,4.21876 -3.21237,11.36596 -1.28125,16.53125 0.92825,2.35755 -2.46205,4.27444 -3.375,4.34375 2.3422,-5.60783 -0.61925,-14.15572 -7.4375,-14.15625 3.86137,-2.3316 8.38061,-4.87634 12.09375,-6.71875 z m -18.625,10.96875 c -3.18042,4.97768 0.29974,10.48685 0.71875,15.5 -0.27969,1.78334 -3.90617,3.98778 -2.34375,0.875 1.03021,-4.68499 -1.03044,-10.45503 -5.9375,-11.90625 2.1775,-1.24086 6.79036,-4.65963 7.5625,-4.46875 z"
       style="fill:#ffffff;fill-opacity:1;stroke:none" />
    <path
       id="path4405"
       d="m 435.99538,254.49321 c -20.03499,2.75582 -54.41121,23.91666 -68.5,39.5 17.73102,-10.75639 50.3788,-34.40511 68.5,-29.5 l 0,-10 z m -10.6875,11.625 c -3.31371,0 -6.02394,3.35812 -6,7.5 0.0294,5.08508 1.93776,5.00897 2.0625,9.5625 0.0417,1.52178 -0.15528,3.07561 -3.375,4.9375 3.76333,-0.0823 5.18436,-1.00437 7.3125,-3.03125 2.12814,2.02688 3.54917,2.94895 7.3125,3.03125 -3.21972,-1.86189 -3.4167,-3.41572 -3.375,-4.9375 0.12474,-4.55353 2.0331,-4.47742 2.0625,-9.5625 0.0239,-4.14188 -2.68629,-7.5 -6,-7.5 z m -16.25,8.3125 c -3.31371,0 -6.02394,3.35813 -6,7.5 0.0294,5.08508 1.93776,5.00897 2.0625,9.5625 0.0417,1.52178 -0.15528,3.07561 -3.375,4.9375 3.76333,-0.0823 5.18436,-1.00437 7.3125,-3.03125 2.12814,2.02688 3.54917,2.94895 7.3125,3.03125 -3.21972,-1.86189 -3.4167,-3.41572 -3.375,-4.9375 0.12474,-4.55353 2.0331,-4.47742 2.0625,-9.5625 0.0239,-4.14187 -2.68629,-7.5 -6,-7.5 z m -16.625,8.5 c -3.31371,0 -6.02394,3.35813 -6,7.5 0.0294,5.08508 1.93776,5.00897 2.0625,9.5625 0.0417,1.52178 -0.15528,3.07561 -3.375,4.9375 3.76333,-0.0823 5.18436,-1.00437 7.3125,-3.03125 2.12814,2.02688 3.54917,2.94895 7.3125,3.03125 -3.21972,-1.86189 -3.4167,-3.41572 -3.375,-4.9375 0.12474,-4.55353 2.0331,-4.47742 2.0625,-9.5625 0.0239,-4.14187 -2.68629,-7.5 -6,-7.5 z m -16.09375,8.46875 c -3.31371,0 -6.02394,3.35813 -6,7.5 0.0294,5.08508 1.93776,5.00897 2.0625,9.5625 0.0417,1.52178 -0.15528,3.07561 -3.375,4.9375 3.76333,-0.0823 5.18436,-1.00437 7.3125,-3.03125 2.12814,2.02688 3.54917,2.94895 7.3125,3.03125 -3.21972,-1.86189 -3.4167,-3.41572 -3.375,-4.9375 0.12474,-4.55353 2.0331,-4.47742 2.0625,-9.5625 0.0239,-4.14187 -2.68629,-7.5 -6,-7.5 z"
       style="fill:#000000;fill-opacity:1;stroke:none" />
  </g>
  <g
     id="g2872">
    <path
       id="path4677"
       d="m 350.72543,328.51655 c -3.19639,-0.0498 -5.42122,2.78799 -7,4.71875 -4.32871,0.60375 -7.39838,4.84035 -7.6875,9.03125 -4.49217,-1.43823 -9.40586,1.14487 -11.375,5.03125 -6.60645,-0.0752 -9.32518,9.92082 -4.28125,13.6875 -1.4618,4.82184 3.08277,8.99662 5.875,11 -2.61247,3.84788 -1.28514,9.08101 1.46875,12.09375 -1.95199,6.17803 6.60802,11.82803 11.6875,8.15625 3.9612,2.40538 9.13864,0.90431 12,-2.53125 2.8397,3.78558 8.21855,4.66637 12.21875,2.625 5.22595,3.91389 13.41635,-2.50731 11.4375,-8.53125 3.51855,-2.99664 3.69079,-8.45217 1.28125,-12.15625 4.43156,-1.43888 7.0295,-6.3942 6.25,-10.8125 5.39675,-3.7619 1.78456,-13.54955 -4.53125,-13.5625 -1.7716,-4.2598 -6.8667,-6.06711 -11.15625,-4.96875 -0.0851,-4.76076 -4.0664,-8.58377 -8.375,-9.34375 -0.93572,-3.28045 -4.63675,-4.80741 -7.8125,-4.4375 z"
       style="fill:#ffffff;fill-opacity:1;stroke:none" />
    <path
       id="path4639"
       d="m 351.35043,330.4853 c -2.7375,0.13125 -5.4625,1.7875 -5.3125,4.5625 -5.4,-0.0139 -8.24375,3.58893 -8.09375,9.875 -6.31368,-2.36687 -10.12324,-0.326 -11.875,4.625 -3.13848,-1.01976 -5.31014,1.19968 -6.03125,3.84375 -0.72111,2.64408 0.002,5.72264 2.6875,6.4375 -1.68193,5.13141 0.85024,8.98141 6.875,10.78125 -4.20207,5.27327 -3.41736,9.52279 0.75,12.71875 -1.93969,2.66976 -0.51058,5.40337 1.78125,6.90625 2.29183,1.50288 5.459,1.77068 6.96875,-0.5625 4.36051,3.18531 8.77024,1.95496 12.34375,-3.21875 3.71667,5.62594 8.04767,6.19455 12.375,3.21875 1.93969,2.66976 4.98747,2.15275 7.125,0.4375 2.13754,-1.71524 3.3462,-4.6244 1.59375,-6.78125 4.37688,-3.16277 4.56621,-7.72137 0.75,-12.71875 6.49909,-1.79625 8.36793,-5.74614 6.875,-10.78125 3.13849,-1.01976 3.59576,-4.09329 2.625,-6.65625 -0.97076,-2.56296 -3.34468,-4.62517 -5.9375,-3.625 -1.65545,-5.14 -5.97419,-6.71015 -11.90625,-4.625 0.3,-6.73607 -2.84374,-9.73892 -8.09375,-9.875 0,-3.3 -2.7625,-4.69375 -5.5,-4.5625 z m -0.0312,21.90625 c 0.81208,-0.0186 1.66597,0.26917 1.875,0.9375 0.85568,-0.99597 3.82973,-0.30422 4.09375,0.875 1.05271,-0.55753 2.87683,0.30849 3.1875,1.46875 0.67023,0.44252 1.15114,0.92117 1.4375,1.375 2.00484,3.17732 -0.0417,12.6875 -3.4375,15.5 1.32588,-4.477 3.10985,-9.76432 0.1875,-11.59375 -0.0727,-0.22739 -0.19337,-0.44337 -0.375,-0.625 -0.5938,-0.5938 -1.54732,-0.60891 -2.125,-0.0312 -0.57767,0.57767 -0.56255,1.53122 0.0312,2.125 0.42803,0.42803 1.03727,0.55421 1.5625,0.375 0.88729,2.91877 0.21012,7.52905 -3.40625,12.25 2.00722,-6.83412 2.79192,-11.3038 0.90625,-13.125 -0.0398,-0.32896 -0.15099,-0.651 -0.40625,-0.90625 -0.5938,-0.5938 -1.54732,-0.60891 -2.125,-0.0312 -0.57767,0.57767 -0.56255,1.53122 0.0312,2.125 0.10925,0.10925 0.24619,0.18013 0.375,0.25 0.70142,5.73138 -0.6217,10.11976 -1.71875,11.125 -1.13635,-1.01719 -2.41985,-5.38017 -1.71875,-11.09375 0.15435,-0.0699 0.31113,-0.15489 0.4375,-0.28125 0.57767,-0.57767 0.56255,-1.53122 -0.0312,-2.125 -0.5938,-0.5938 -1.54732,-0.60891 -2.125,-0.0312 -0.26477,0.26477 -0.38871,0.61778 -0.40625,0.96875 -1.88567,1.8212 -1.10097,6.29088 0.90625,13.125 -3.64376,-4.7567 -4.29288,-9.39771 -3.375,-12.3125 0.53837,0.21176 1.16814,0.1131 1.59375,-0.3125 0.57767,-0.57768 0.56255,-1.53122 -0.0312,-2.125 -0.5938,-0.59389 -1.54732,-0.60891 -2.125,-0.0312 -0.19256,0.19256 -0.31335,0.43924 -0.375,0.6875 -2.92235,1.82943 -1.13838,7.11675 0.1875,11.59375 -3.3958,-2.8125 -5.44234,-12.32268 -3.4375,-15.5 0.28636,-0.45383 0.79852,-0.93248 1.46875,-1.375 0.0403,-1.12626 1.97146,-2.22555 3.1875,-1.46875 0.19719,-1.26079 2.86623,-2.059 4.09375,-0.875 0.0546,-0.59398 0.84417,-0.91891 1.65625,-0.9375 z"
       style="fill:#000000;fill-opacity:1;stroke:none" />
  </g>
  <g
     id="g2908">
    <path
       id="path3659"
       d="m 256.48196,401.82379 c 1.14659,4.70704 3.22746,9.45883 8.03125,10.4375 -2.24914,1.45866 -2.34591,2.45029 -2.09375,3.8125 -6.20137,-3.97218 -14.38156,-7.41532 -22.6875,-7.625 17.00531,11.3149 31.69044,27.39881 34.05919,27.41366 2.36875,0.0148 25.54886,-22.45756 34.48463,-27.11235 -11.88568,-0.60775 -18.00777,3.30674 -23.60632,7.6674 0.46981,-2.20456 -0.006,-3.49054 -1.46875,-4.59375 4.143,-0.73285 6.14073,-3.94056 8.15625,-10.1875 16.58081,3.54994 7.36141,-24.07326 4.3125,-32.96875 -3.63249,10.27877 -7.7755,22.42376 -14.71875,30.0625 0.61585,-5.77357 -3.19147,-10.75463 -7.15625,-14.5 -4.00328,3.7914 -7.93106,8.90329 -7.09375,14.75 -7.39716,-8.70465 -10.97629,-19.7265 -14.78125,-30.3125 -3.2316,9.05448 -11.66664,37.03246 4.5625,33.15629 z"
       style="fill:#ffffff;fill-opacity:1;stroke:none" />
    <path
       id="path3647"
       d="m 251.98196,374.69879 c -2.40074,6.82653 -8.99527,29.60403 5.90625,24.40625 1.69925,7.92187 5.29356,15.49377 14.21875,8.59375 -10.68765,-10.32333 -14.77402,-17.8455 -20.125,-33 z m 43.625,0 c -5.35098,15.1545 -9.43735,22.67667 -20.125,33 8.92519,6.90002 12.5195,-0.67188 14.21875,-8.59375 14.90152,5.19778 8.30699,-17.57972 5.90625,-24.40625 z m -21.8125,12.40625 c -9.34598,9.53386 -3.95654,16.22017 -0.5,19.3125 -1.81887,-4.17597 -1.62815,-9.9106 0.5,-12.8125 2.12815,2.9019 2.31887,8.63653 0.5,12.8125 3.45654,-3.09233 8.84598,-9.77864 -0.5,-19.3125 z m 0,21.5 c -2.13237,0.0145 -8.28255,4.48915 -9,6.90625 1.53782,6.89625 4.65484,11.15634 9,16.21875 4.28313,-4.82538 7.528,-9.2681 9,-16.21875 -1.0898,-2.6074 -6.86763,-6.92073 -9,-6.90625 z m -28.5,1.8125 c 10.48258,6.77711 17.49468,10.7844 26.5,21.6875 -6.93043,-13.48452 -12.09611,-17.73563 -26.5,-21.6875 z m 57,0 c -14.40389,3.95187 -19.56957,8.20298 -26.5,21.6875 9.00532,-10.9031 16.01742,-14.91039 26.5,-21.6875 z"
       style="fill:#000000;fill-opacity:1;stroke:none" />
  </g>
  <g
     id="g2866">
    <path
       id="path3658"
       d="m 187.23402,393.71834 c -2.86023,1.29176 -3.70217,1.97122 -6.15625,3.07031 -0.78376,-7.66525 -1.39888,-20.28576 1.44776,-24.34682 -0.16253,10.40891 0.91684,15.70036 4.70849,21.27651 m -11.6875,-6.84375 c -2.74365,-5.44952 -4.01126,-13.54759 -8.0625,-18.3125 -1.70752,8.47968 -1.16577,17.58393 -4.5625,25.8125 -4.31904,-5.2998 -5.66655,-12.4761 -10.03125,-17.8125 -1.75384,11.96299 4.96386,26.45752 14.39277,34.16421 -4.14081,7.22876 -3.83385,17.2434 0.51164,25.01349 3.61756,-31.08529 46.85355,-11.08944 37.18934,-62.58395 -2.67262,6.90849 -6.2088,14.44055 -13.15625,17.6875 0.43302,-7.24543 3.8327,-13.69841 4.75,-20.875 -3.11441,2.63845 -6.26862,5.41614 -8.03125,9.15625 -1.55568,-4.68531 -2.47507,-7.05476 -3.40625,-11.875 -6.40826,6.79981 -8.62293,11.28612 -9.59375,19.625 z m -6.40625,2.4375 c 1.0311,4.47909 5.32796,8.36939 7.75,10.90625 -2.30778,1.49718 -4.65727,4.36169 -6.28125,5.75 -0.99084,-5.29262 -1.74997,-12.21056 -1.46875,-16.65625 z"
       style="fill:#ffffff;fill-opacity:1;stroke:none" />
    <path
       id="path3639"
       d="m 184.54652,370.65584 c -1.0312,8.08753 0.18998,18.00828 5.125,22.78125 0.25043,-7.4128 2.21035,-13.41084 3.875,-18.0625 -2.31283,2.81369 -3.80941,4.90911 -4.53125,8.5625 -2.56326,-2.94628 -3.23131,-6.71105 -4.46875,-13.28125 z m -15.90625,3.1875 c 0.82496,9.0598 1.14649,19.85831 11.03125,25.25 -0.89862,-7.76635 -0.95846,-13.13418 -0.53125,-20.4375 -1.51733,4.22791 -2.32902,7.29223 -2.34375,12.625 -4.06586,-4.62566 -4.97427,-8.74598 -8.15625,-17.4375 z m 35.625,5.375 c -5.65686,20.27039 -41.01317,16.15793 -36.59375,49.15625 8.3085,-23.09882 39.2454,-10.85463 36.59375,-49.15625 z m -50.03125,2.75 c 0.82496,9.0598 5.20899,22.07706 15.09375,27.46875 -1.16378,-4.23082 -2.87451,-16.13954 -2.09375,-23.53125 -1.16378,4.22791 -2.59326,8.45921 -1.8125,13.96875 -4.68458,-3.83016 -8.09391,-9.92184 -11.1875,-17.90625 z"
       style="fill:#000000;fill-opacity:1;stroke:none" />
  </g>
  <g
     id="g2889">
    <path
       id="path3595"
       d="m 95.411127,336.66364 c -3.06754,0.0249 -4.99297,1.407 -6.30897,3.01332 -2.47199,-1.94021 -6.74967,-0.98921 -8.98935,1.26824 -1.62977,-0.71649 -2.91856,-0.41754 -4.20336,0.28987 -2.05515,-3.2793 -5.96737,-6.79005 -9.608,0.10187 11.33318,0.7839 -9.361911,14.23376 24.39277,31.13573 0.47172,9.51137 5.49579,8.02487 5.60892,12.59007 0.11094,4.47687 -4.94943,3.24006 -6.03603,14.76345 l 7.60925,0 c 0.0612,-6.22453 6.151773,-8.4344 6.187503,-14.74737 0.0357,-6.31297 -5.881243,-7.99791 -5.743723,-12.3249 33.578603,-16.63448 15.332453,-31.44182 24.878413,-31.17039 -1.40469,-5.01488 -6.01361,-4.28827 -8.65966,-0.31748 -1.42091,-1.05127 -3.22427,-0.88846 -4.50877,-0.46311 -2.2623,-2.31178 -6.69479,-3.04016 -8.90912,-1.40533 -1.504863,-1.83144 -2.642323,-2.75881 -5.709873,-2.73392 l 0,-5e-5 z"
       style="fill:#ffffff;fill-opacity:1;stroke:none" />
    <path
       id="path3584"
       d="m 95.157607,338.63239 c -3.48129,1e-5 -4.36618,1.75948 -5.59375,3.5 -1.97007,-1.95363 -4.2665,-2.99118 -7.40625,-0.5 0.89292,1.19864 2.66087,-0.57523 2.125,6.78125 -0.85811,11.78022 3.44808,19.95904 8.5,21.9375 -0.6571,11.78757 5.92239,9.0385 5.375,14.875 0.70721,3.70958 -5.67827,5.41989 -5.875,13 l 4,0 c 1.4395,-7.59697 5.262873,-5.33122 5.875003,-13 -0.62724,-8.74795 -5.743573,-5.21269 -5.375003,-14.65625 5.365323,-1.43061 10.150183,-9.7986 9.250003,-22.15625 -0.53587,-7.35648 1.23208,-5.58261 2.125,-6.78125 -3.13975,-2.49118 -5.43618,-1.45363 -7.40625,0.5 -1.227573,-1.74052 -2.112463,-3.50001 -5.593753,-3.5 z m -24.28125,0.46875 c -0.74465,-0.0298 -1.45296,0.31938 -2.09375,1.125 2.663,0.63793 3.14351,3.19409 2.875,6.59375 -0.7152,9.05542 6.63889,16.4085 16.3125,22.40625 -2.85783,-5.75228 -5.9023,-5.35345 -5.8125,-25.5 -1.0213,-1.9509 -6.21168,-2.08331 -6.875,0 -1.03155,-2.68709 -2.76802,-4.55942 -4.40625,-4.625 z m 48.562503,0 c -1.63823,0.0656 -3.3747,1.93791 -4.40625,4.625 -0.66332,-2.08331 -5.8537,-1.9509 -6.875,0 0.0898,20.14655 -2.95467,19.74772 -5.8125,25.5 9.67361,-5.99775 17.0277,-13.35083 16.3125,-22.40625 -0.26851,-3.39966 0.212,-5.95582 2.875,-6.59375 -0.64079,-0.80562 -1.3491,-1.1548 -2.09375,-1.125 z"
       style="fill:#000000;fill-opacity:1;stroke:none" />
  </g>
  <g
     id="g2868">
    <path
       id="path3760"
       d="m 20.585842,277.82283 c -2.504838,-3.2645 -4.105462,-5.34794 -6.661071,-9.08708 -0.2061,6.63001 2.621321,17.08573 5.723566,22.14957 -5.890875,0.88677 9.354289,18.5023 9.675855,13.89462 4.523097,4.27093 12.905345,10.7367 18.605396,13.19913 -2.755317,-4.1463 -4.590728,-6.79065 -5.562499,-9.4375 7.212899,2.56222 12.06824,0.86751 18.843753,-1.46875 l 0.124997,15.09375 6.750007,0.125 -0.125003,-55.5625 c -30.669451,5.2991 -37.865543,22.95883 -36.093758,-11.03125 -6.69208,8.35327 -11.052051,13.91931 -11.281243,22.12501 z m 40.624993,25.18749 c -25.236318,-1.82981 -10.066458,-13.97563 0,-24.1875 l 0,24.1875 z"
       style="fill:#ffffff;fill-opacity:1;stroke:none" />
    <path
       id="path3739"
       d="m 30.42959,261.07282 c -13.39135,17.71739 -8.64373,25.80719 8,27.125 -4.45416,16.09071 1.52099,23.33654 22.75,16.8125 -29.78983,-2.31419 -12.03782,-16.90554 2.03125,-31 l 0,46.40625 3,0 2.5e-4,-50.8005 -3.00025,0.8005 c -25.74231,6.42213 -36.55015,18.83517 -32.78125,-9.34375 z m -14.125,14.15625 c 1.03278,5.47854 2.61642,11.08212 5.59375,15.5 l 11.71875,-1.75 c -8.37009,-1.55668 -12.47795,-6.53646 -17.3125,-13.75 z m 19.65625,14.71875 -15.875,2.90625 7.71875,11 8.15625,-13.90625 z m 0.0937,2.53125 -5.65625,10.375 c 3.13314,4.30879 7.86134,7.71823 12.65625,10.5625 -5.12499,-7.01018 -8.39995,-12.53977 -7,-20.9375 z"
       style="fill:#000000;fill-opacity:1;stroke:none" />
  </g>
  <g
     id="g2912"
     transform="translate(4.2426406,0.70710676)">
    <path
       id="path4578"
       d="m 41.98438,172.67187 c -13.19715,8.56368 -26.40046,17.11787 -39.59375,25.6875 13.56128,8.79346 27.10575,17.6135 40.6875,26.375 13.58162,-8.7617 27.12632,-17.58139 40.6875,-26.375 -13.56128,-8.79346 -27.10575,-17.6135 -40.6875,-26.375 l -0.84664,0.53217 -0.24711,0.15533 z"
       style="fill:#ffffff;fill-opacity:1;stroke:none" />
    <path
       id="rect4520"
       d="m 43.07813,174.35937 -37,24 37,24 37,-24 -37,-24 z m -3,3.1875 3,2 3,-2 -2,3 2,3 -3,-2 -3,2 2,-3 -2,-3 z m -8.65625,5.59375 3,2 3,-2 -2,3 2,3 -3,-2 -3,2 2,-3 -2,-3 z m 17.3125,0 3,2 3,-2 -2,3 2,3 -3,-2 -3,2 2,-3 -2,-3 z m -25.9375,5.625 3,2 3,-2 -2,3 2,3 -3,-2 -3,2 2,-3 -2,-3 z m 34.5625,0 3,2 3,-2 -2,3 2,3 -3,-2 -3,2 2.03125,-3 -2.03125,-3 z m -43.21875,5.59375 3,2 3,-2 -2,3 2,3 -3,-2 -3,2 2,-3 -2,-3 z m 51.875,0 3,2 3,-2 -2,3 2,3 -3,-2 -3,2 2,-3 -2,-3 z"
       style="fill:#000000;fill-opacity:1;stroke:none" />
  </g>
  <g
     id="g2906">
    <path
       id="path3589"
       d="m 135.11301,24.7756 c -16.68107,0.10211 -40.20764,30.84091 -39.73461,42.27255 8.03983,1.09432 24.45625,-10.34724 27.75023,-12.83505 1.24322,10.27793 2.65941,31.16725 12.5625,31 9.77812,-0.16514 10.65239,-23.22636 11.75,-31.34375 4.01597,3.77079 19.90212,12.75769 29.1875,13.75 C 172.74705,49.32709 151.79408,24.67349 135.11301,24.7756 z"
       style="fill:#ffffff;fill-opacity:1;stroke:none" />
    <path
       id="path2812"
       d="m 135.37863,26.93185 c -0.0223,6.79207 4.57349,15.71192 9.90625,21.78125 6.14857,6.66147 18.07104,12.92515 28,15.8125 -6.54074,-17.35358 -17.40015,-30.31644 -37.90625,-37.59375 z m 0,0 c -20.5061,7.27731 -31.36551,20.24017 -37.90625,37.59375 9.92896,-2.88735 21.85143,-9.15103 28,-15.8125 5.33276,-6.06933 9.89731,-14.98918 9.90625,-21.78125 z m -9.90625,21.78125 c -0.0404,12.17656 4.42332,34.21875 9.90625,34.21875 5.48293,0 9.94662,-22.04219 9.90625,-34.21875 -5.59793,11.79984 -7.84385,2.12116 -9.90625,-3.09375 -2.0624,5.21491 -4.30832,14.89359 -9.90625,3.09375 z"
       style="fill:#000000;fill-opacity:1;stroke:none" />
  </g>
  <g
     id="g2927">
    <path
       id="path3607"
       d="m 216.15836,10.613657 c -1.21413,-6.948818 -13.42812,1.412041 -17.84375,7.53125 l 1.21875,-4.96875 c -25.69274,16.22432 -14.69214,46.9721 6.09375,45 9.1875,-3.5625 13.97695,4.33337 11,-6.53125 2.8756,4.67578 5.05189,7.78623 9.09375,7.71875 4.04186,-0.0675 6.47026,-2.51009 8.96875,-8.09375 -0.58072,11.67534 2.09375,3.34375 10.78125,7.0625 21.59309,2.31445 31.69678,-34.1754 5.22163,-45.318878 l 2.52837,5.225128 c -5.47536,-5.538143 -17.28984,-15.061538 -17.53125,-7.4375 -1.94509,-1.795673 -4.70811,-4.289538 -7.25,-3.65625 -2.41525,0.601737 -3.79218,0.628199 -5.9375,-0.09375 -1.90076,-0.639649 -5.16916,1.768187 -6.34375,3.5625 z"
       style="fill:#ffffff;fill-opacity:1;stroke:none" />
    <path
       id="path2813"
       d="m 222.81461,8.926157 c -1.0198,-0.179819 -2.17417,1.620462 -2.59375,4 -0.41958,2.379536 0.074,4.445184 1.09375,4.625 1.0198,0.179819 2.17417,-1.620463 2.59375,-4 0.41958,-2.379537 -0.0739,-4.445184 -1.09375,-4.625 z m 5.96875,0 c -1.0198,0.179816 -1.51333,2.245463 -1.09375,4.625 0.41958,2.379537 1.57395,4.179819 2.59375,4 1.0198,-0.179816 1.51333,-2.245464 1.09375,-4.625 -0.41958,-2.379538 -1.57395,-4.179819 -2.59375,-4 z m -15.53125,1.03125 c -0.67396,0.02812 -1.84496,1.159539 -2.78125,2.78125 -1.07005,1.853384 -1.44162,3.623569 -0.84375,3.96875 0.59787,0.345178 1.9612,-0.865367 3.03125,-2.71875 1.07005,-1.853385 1.44161,-3.623569 0.84375,-3.96875 -0.0747,-0.04315 -0.15372,-0.06652 -0.25,-0.0625 z m 25.09375,0 c -0.0963,-0.004 -0.17527,0.01935 -0.25,0.0625 -0.59787,0.345181 -0.2263,2.115365 0.84375,3.96875 1.07005,1.853383 2.43338,3.063928 3.03125,2.71875 0.59786,-0.345181 0.2263,-2.115366 -0.84375,-3.96875 -0.93629,-1.621711 -2.10729,-2.75313 -2.78125,-2.78125 z m -22.28125,3.78125 c -7.96195,10.88659 -4.39337,31.3707 0.5,34 -2.60313,-9.37809 -1.6366,-25.429518 -0.5,-34 z m 19.46875,0 c 1.1366,8.570482 2.10313,24.62191 -0.5,34 4.89337,-2.6293 8.46195,-23.11341 0.5,-34 z m -30.71875,1.5 c -12.48069,8.96083 -7.73857,26.5426 -1.375,33.875 -1.97602,-8.97882 -4.01907,-17.31231 1.375,-33.875 z m 41.96875,0 c 5.39406,16.56269 3.35101,24.89618 1.375,33.875 6.36356,-7.3324 11.10569,-24.91417 -1.375,-33.875 z m -20.59375,2.75 c -3.75395,10.23152 -3.38556,20.57226 -0.375,31.375 3.15855,-10.91565 3.69406,-21.11772 0.375,-31.375 z m -30.125,0.875 c -18.37312,14.18452 -3.32734,41.45363 10.125,36.625 -10.58757,-8.1658 -16.59029,-18.84429 -10.125,-36.625 z m 59.46875,0 c 6.46529,17.78071 0.46257,28.4592 -10.125,36.625 13.45234,4.82863 28.49812,-22.44048 10.125,-36.625 z m -34.84375,1.625 c -7.68717,14.79792 -2.01461,26.53121 2.5,34.125 -2.60392,-8.89407 -2.86003,-20.85356 -2.5,-34.125 z m 10.21875,0 c 0.36003,13.27144 0.10391,25.23093 -2.5,34.125 4.51461,-7.59379 10.18717,-19.32708 2.5,-34.125 z m -21.84375,0.25 c -11.1993,15.02065 -2.11834,29.2696 5.75,33.875 -4.56673,-8.12482 -8.04422,-15.61947 -5.75,-33.875 z m 33.46875,0 c 2.29422,18.25553 -1.18327,25.75018 -5.75,33.875 7.86834,-4.6054 16.9493,-18.85435 5.75,-33.875 z"
       style="fill:#000000;fill-opacity:1;stroke:none" />
  </g>
  <g
     transform="translate(-504.98089,-197.42293)"
     id="g3589">
    <path
       id="path3585"
       d="m 571.42417,283.3796 c -5.14719,5.97591 -6.93629,10.54195 -5.83777,3.049 -6.23639,9.46549 -5.14807,6.98236 -4.13726,2.00718 -5.18428,2.5966 -5.29718,12.65134 -6.34099,3.7428 -6.1907,9.3752 -3.74979,13.86348 -0.48315,17.66513 -7.14519,19.15346 10.46084,36.08461 19.93061,35.77849 9.46978,-0.30612 26.79715,-17.95748 20.01225,-35.6731 4.30847,-1.94316 6.63356,-12.55891 -0.1849,-17.58915 -0.98981,10.46687 -0.3987,0.23714 -6.90349,-4.30469 0.23098,4.00229 2.72097,7.71604 -4.19281,-1.53671 0.85386,6.67374 -0.85697,3.54126 -5.39857,-3.24606 1.03283,10.13026 0.61569,5.65809 -3.45871,-0.1581 -3.77124,6.12828 -4.09533,10.13523 -3.00521,0.26521 z"
       style="fill:#ffffff;fill-opacity:1;stroke:none" />
    <path
       id="path3674"
       d="m 574.5,287 c -3.1582,5.55162 -4.45147,8.46913 -3.8125,14.5 -2.81955,-1.25808 -3.23186,-7.15026 -1.875,-11.90625 -3.20373,3.76554 -4.21607,5.48608 -4,12.40625 -2.50368,-3.86925 -2.6778,-5.28105 -1.0625,-10.34375 -4.20922,5.51589 -3.91551,7.75995 -2.96875,12.15625 -1.93593,-3.80411 -2.1068,-4.14687 -1.65625,-9.71875 -3.35798,5.56926 -2.3,8.36961 -0.40625,11.9375 -2.92791,-2.25483 -4.5502,-2.69812 -4.34375,-8.46875 -1.47336,6.1234 -0.97567,9.13984 2.625,11.625 -9.29253,22.98875 15.23655,34.8125 17.5,34.8125 2.26345,0 26.79253,-11.82375 17.5,-34.8125 3.60067,-2.48516 5.19211,-5.5016 3.71875,-11.625 0.20645,5.77063 -2.50959,6.21392 -5.4375,8.46875 1.89375,-3.56789 2.95173,-6.36824 -0.40625,-11.9375 0.45055,5.57188 0.27968,5.91464 -1.65625,9.71875 0.94676,-4.3963 1.24047,-6.64036 -2.96875,-12.15625 1.6153,5.0627 1.44118,6.4745 -1.0625,10.34375 0.21607,-6.92017 -0.79627,-8.64071 -4,-12.40625 1.35686,4.75599 0.94455,10.64817 -1.875,11.90625 0.63897,-6.03087 -0.6543,-8.94838 -3.8125,-14.5 z"
       style="fill:#000000;fill-opacity:1;stroke:none" />
  </g>
</svg>
